<svg width="80" height="80" viewBox="0 0 80 80" fill="none" xmlns="http://www.w3.org/2000/svg">
<path d="M16.0076 59.6418C19.3399 57.1249 23.0485 55.1471 27.1335 53.7084C31.2185 52.2696 35.5089 51.5502 40.0049 51.5502C44.5009 51.5502 48.8014 52.2814 52.9067 53.7437C57.0119 55.2059 60.7071 57.1798 63.9924 59.6653C66.2328 56.9707 67.9744 53.9678 69.2172 50.6564C70.4599 47.3444 71.0813 43.7923 71.0813 40C71.0813 31.4034 68.0502 24.074 61.9881 18.0119C55.926 11.9498 48.5966 8.91873 40 8.91873C31.4034 8.91873 24.074 11.9498 18.0119 18.0119C11.9498 24.074 8.91873 31.4034 8.91873 40C8.91873 43.7766 9.53618 47.3209 10.7711 50.6329C12.006 53.9442 13.7515 56.9472 16.0076 59.6418ZM40 44.131C36.0823 44.131 32.785 42.7962 30.1081 40.1264C27.4305 37.4567 26.0917 34.1633 26.0917 30.2462C26.0917 26.3285 27.4305 23.0309 30.1081 20.3533C32.785 17.6764 36.0823 16.3379 40 16.3379C43.9177 16.3379 47.215 17.6764 49.8919 20.3533C52.5695 23.0309 53.9083 26.3285 53.9083 30.2462C53.9083 34.1633 52.5695 37.4567 49.8919 40.1264C47.215 42.7962 43.9177 44.131 40 44.131ZM39.998 80C34.4671 80 29.2698 78.9513 24.406 76.8539C19.5428 74.7566 15.3079 71.9049 11.7012 68.2988C8.09513 64.6921 5.24343 60.4565 3.14606 55.5921C1.04869 50.727 0 45.529 0 39.998C0 34.4671 1.04869 29.2698 3.14606 24.406C5.24343 19.5428 8.09513 15.3079 11.7012 11.7012C15.3079 8.09513 19.5434 5.24342 24.4079 3.14605C29.273 1.04868 34.471 0 40.002 0C45.5329 0 50.7302 1.04868 55.594 3.14605C60.4572 5.24342 64.6921 8.09513 68.2988 11.7012C71.9049 15.3079 74.7566 19.5434 76.8539 24.4079C78.9513 29.273 80 34.471 80 40.002C80 45.5329 78.9513 50.7302 76.8539 55.594C74.7566 60.4572 71.9049 64.6921 68.2988 68.2988C64.6921 71.9049 60.4566 74.7566 55.5921 76.8539C50.727 78.9513 45.529 80 39.998 80ZM40 71.0813C43.3845 71.0813 46.5656 70.5945 49.543 69.621C52.5199 68.6474 55.2824 67.2443 57.8306 65.4115C55.2517 63.5637 52.4931 62.157 49.5548 61.1913C46.6165 60.2249 43.4316 59.7417 40 59.7417C36.5684 59.7417 33.3874 60.2249 30.457 61.1913C27.5265 62.157 24.7715 63.5637 22.1919 65.4115C24.7402 67.2443 27.4991 68.6474 30.4687 69.621C33.4384 70.5945 36.6155 71.0813 40 71.0813ZM40 35.9395C41.6361 35.9395 42.9941 35.3995 44.0742 34.3195C45.1536 33.2401 45.6933 31.8823 45.6933 30.2462C45.6933 28.6095 45.1536 27.2475 44.0742 26.1603C42.9941 25.0731 41.6361 24.5294 40 24.5294C38.3639 24.5294 37.0059 25.0731 35.9258 26.1603C34.8464 27.2475 34.3067 28.6095 34.3067 30.2462C34.3067 31.8823 34.8464 33.2401 35.9258 34.3195C37.0059 35.3995 38.3639 35.9395 40 35.9395Z" fill="url(#paint0_linear_26_71)"/>
<defs>
<linearGradient id="paint0_linear_26_71" x1="0" y1="0" x2="88.5" y2="88" gradientUnits="userSpaceOnUse">
<stop stop-color="#2970B8"/>
<stop offset="1" stop-color="#5A43AC"/>
</linearGradient>
</defs>
</svg>
