<svg width="18" height="18" viewBox="0 0 18 18" fill="none" xmlns="http://www.w3.org/2000/svg">
<path d="M12.075 9.97501L10.9875 8.88751C11.1 8.30001 10.9313 7.75001 10.4813 7.23751C10.0312 6.72501 9.45 6.52501 8.7375 6.63751L7.65 5.55001C7.8625 5.45001 8.07813 5.37501 8.29688 5.32501C8.51563 5.27501 8.75 5.25001 9 5.25001C9.9375 5.25001 10.7344 5.57813 11.3906 6.23438C12.0469 6.89063 12.375 7.68751 12.375 8.62501C12.375 8.87501 12.35 9.10938 12.3 9.32813C12.25 9.54688 12.175 9.76251 12.075 9.97501ZM14.475 12.3375L13.3875 11.2875C13.8625 10.925 14.2844 10.5281 14.6531 10.0969C15.0219 9.66563 15.3375 9.17501 15.6 8.62501C14.975 7.36251 14.0781 6.35938 12.9094 5.61563C11.7406 4.87188 10.4375 4.50001 9 4.50001C8.6375 4.50001 8.28125 4.52501 7.93125 4.57501C7.58125 4.62501 7.2375 4.70001 6.9 4.80001L5.7375 3.63751C6.25 3.42501 6.775 3.26563 7.3125 3.15938C7.85 3.05313 8.4125 3.00001 9 3.00001C10.8875 3.00001 12.5688 3.52188 14.0438 4.56563C15.5188 5.60938 16.5875 6.96251 17.25 8.62501C16.9625 9.36251 16.5844 10.0469 16.1156 10.6781C15.6469 11.3094 15.1 11.8625 14.475 12.3375ZM14.85 16.95L11.7 13.8375C11.2625 13.975 10.8219 14.0781 10.3781 14.1469C9.93438 14.2156 9.475 14.25 9 14.25C7.1125 14.25 5.43125 13.7281 3.95625 12.6844C2.48125 11.6406 1.4125 10.2875 0.75 8.62501C1.0125 7.96251 1.34375 7.34688 1.74375 6.77813C2.14375 6.20938 2.6 5.70001 3.1125 5.25001L1.05 3.15001L2.1 2.10001L15.9 15.9L14.85 16.95ZM4.1625 6.30001C3.8 6.62501 3.46875 6.98126 3.16875 7.36876C2.86875 7.75626 2.6125 8.17501 2.4 8.62501C3.025 9.88751 3.92188 10.8906 5.09063 11.6344C6.25938 12.3781 7.5625 12.75 9 12.75C9.25 12.75 9.49375 12.7344 9.73125 12.7031C9.96875 12.6719 10.2125 12.6375 10.4625 12.6L9.7875 11.8875C9.65 11.925 9.51875 11.9531 9.39375 11.9719C9.26875 11.9906 9.1375 12 9 12C8.0625 12 7.26563 11.6719 6.60938 11.0156C5.95312 10.3594 5.625 9.56251 5.625 8.62501C5.625 8.48751 5.63438 8.35626 5.65313 8.23126C5.67188 8.10626 5.7 7.97501 5.7375 7.83751L4.1625 6.30001Z" fill="#3D3D3D"/>
</svg>
